<?xml version="1.0" standalone="no"?>
<!DOCTYPE svg PUBLIC "-//W3C//DTD SVG 20010904//EN"
 "http://www.w3.org/TR/2001/REC-SVG-20010904/DTD/svg10.dtd">
<svg version="1.0" xmlns="http://www.w3.org/2000/svg"
 width="700.000000pt" height="700.000000pt" viewBox="0 0 700.000000 700.000000"
 preserveAspectRatio="xMidYMid meet">
<metadata>
Created by potrace 1.14, written by Peter Selinger 2001-2017
</metadata>
<g transform="translate(0.000000,700.000000) scale(0.100000,-0.100000)"
fill="#000000" stroke="none">
<path d="M0 3500 l0 -3500 3500 0 3500 0 0 3500 0 3500 -3500 0 -3500 0 0
-3500z m4486 2751 c48 -22 80 -60 93 -110 5 -20 53 -369 105 -776 53 -407 103
-758 111 -780 12 -32 125 -144 585 -579 623 -589 610 -575 595 -672 -13 -92
-10 -90 -760 -445 -374 -178 -694 -332 -710 -342 -17 -11 -37 -29 -46 -41 -8
-11 -163 -331 -343 -711 -361 -760 -358 -757 -450 -770 -97 -15 -83 -28 -672
595 -436 461 -547 573 -579 585 -22 8 -383 59 -801 114 -498 65 -772 105 -792
115 -66 34 -104 118 -84 189 6 23 176 345 378 716 227 419 368 688 371 710 3
24 -47 315 -138 804 -133 718 -142 769 -130 809 17 54 65 102 119 119 40 12
91 3 809 -130 501 -94 780 -141 805 -138 35 5 162 72 1134 603 144 78 270 144
280 147 40 10 80 6 120 -12z m1224 -4546 l615 -615 -208 -207 -207 -208 -615
615 c-338 338 -615 619 -615 625 0 13 392 405 405 405 6 0 287 -277 625 -615z"/>
</g>
</svg>
